<svg id="Layer_1" data-name="Layer 1" xmlns="http://www.w3.org/2000/svg" xmlns:xlink="http://www.w3.org/1999/xlink" viewBox="0 0 1169 741.93"><defs><style>.cls-1{fill:url(#linear-gradient);}.cls-2{fill:url(#linear-gradient-2);}</style><linearGradient id="linear-gradient" x1="1366.5" y1="417.09" x2="1366.5" y2="417.09" gradientUnits="userSpaceOnUse"><stop offset="0.03" stop-color="#544a7d"/><stop offset="0.12" stop-color="#5b507b"/><stop offset="0.26" stop-color="#6f6076"/><stop offset="0.42" stop-color="#8f7a6e"/><stop offset="0.61" stop-color="#bc9e63"/><stop offset="0.81" stop-color="#f5cc55"/><stop offset="0.84" stop-color="#ffd452"/></linearGradient><linearGradient id="linear-gradient-2" x1="1.5" y1="372.05" x2="1170.5" y2="372.05" gradientUnits="userSpaceOnUse"><stop offset="0" stop-color="#cce0f4"/><stop offset="0.07" stop-color="#c3dbf2"/><stop offset="0.2" stop-color="#a9ceec"/><stop offset="0.36" stop-color="#80bae3"/><stop offset="0.54" stop-color="#479dd6"/><stop offset="0.57" stop-color="#3f99d4"/><stop offset="0.87" stop-color="#0075be"/><stop offset="0.99" stop-color="#005b97"/></linearGradient></defs><title>nbg</title><path class="cls-1" d="M1366.5,417.09" transform="translate(-1.5 -1.09)"/><path class="cls-2" d="M53.5,681.82l63,36.37,63-36.37,106,61.2,106-61.2,84.55,48.81,84.45-48.76,90,52,90-51.94,82,47.35,82-47.35L952,709.35l47.5-27.43,59,34.07,59-34.07,53,30.6V133.67c-4.64,24.11-168.76-78.32-281.5,39.92-41,43-222-173-204.5-172.5H1.5V711.84Z" transform="translate(-1.5 -1.09)"/></svg>